<?xml version="1.0" standalone="no"?>
<!DOCTYPE svg PUBLIC "-//W3C//DTD SVG 20010904//EN"
 "http://www.w3.org/TR/2001/REC-SVG-20010904/DTD/svg10.dtd">
<svg version="1.0" xmlns="http://www.w3.org/2000/svg"
 width="1280.000000pt" height="655.000000pt" viewBox="0 0 1280.000000 655.000000"
 preserveAspectRatio="xMidYMid meet">
<g transform="translate(0.000000,655.000000) scale(0.100000,-0.100000)"
fill="#000000" stroke="none">
<path d="M1513 6514 c-110 -84 -317 -271 -445 -402 -368 -379 -635 -762 -948
-1364 -119 -228 -124 -239 -115 -268 13 -40 196 -145 478 -274 263 -121 319
-150 432 -224 132 -88 322 -277 446 -444 90 -121 141 -202 414 -643 342 -552
497 -721 924 -1000 640 -419 2871 -1529 3355 -1670 78 -23 186 -17 245 12 25
12 45 21 46 20 1 -1 9 -29 19 -62 14 -48 29 -71 71 -112 94 -92 198 -105 365
-45 615 218 2526 1168 3219 1599 305 190 515 366 679 568 80 99 248 353 417
630 286 471 447 684 634 839 152 126 237 175 561 324 327 150 490 248 490 297
0 32 -236 478 -369 699 -305 504 -653 912 -1074 1257 -81 67 -116 89 -137 89
-75 0 -651 -494 -1155 -991 l-210 -207 -150 24 c-397 63 -703 93 -1040 101
l-250 5 -490 -96 c-269 -54 -665 -131 -880 -172 -214 -42 -419 -82 -455 -90
l-65 -15 -25 33 c-80 107 -181 168 -320 194 -47 8 -474 92 -950 186 l-865 170
-195 -7 c-361 -11 -648 -38 -1023 -96 l-199 -30 -172 168 c-412 402 -774 726
-1056 944 -92 71 -120 89 -144 89 -8 0 -36 -16 -63 -36z m4512 -2128 c244 -23
239 -22 253 -55 36 -80 140 -157 229 -167 26 -3 154 4 283 17 186 18 297 23
535 23 165 -1 318 -5 340 -10 l39 -10 -559 -339 c-308 -186 -567 -339 -575
-339 -17 0 -1469 875 -1470 886 0 12 109 16 440 12 191 -1 391 -9 485 -18z
m595 -3753 c0 -8 -161 -115 -165 -111 -2 2 -5 12 -7 22 -2 15 13 28 67 57 66
37 105 48 105 32z"/>
</g>
</svg>
